<?xml version="1.0" standalone="no"?>
<!DOCTYPE svg PUBLIC "-//W3C//DTD SVG 20010904//EN"
 "http://www.w3.org/TR/2001/REC-SVG-20010904/DTD/svg10.dtd">
<svg version="1.0" xmlns="http://www.w3.org/2000/svg"
 width="280.000000pt" height="280.000000pt" viewBox="0 0 280.000000 280.000000"
 preserveAspectRatio="xMidYMid meet">

<g transform="translate(0.000000,280.000000) scale(0.100000,-0.100000)"
fill="#000000" stroke="none">
<path d="M1365 2761 c-58 -15 -106 -44 -139 -85 -40 -49 -56 -94 -56 -154 0
-171 156 -287 321 -238 108 31 172 117 173 230 1 62 -19 130 -35 120 -5 -3 -6
1 -3 9 7 20 -51 76 -102 99 -50 22 -117 30 -159 19z m84 -7 c17 -4 31 -11 31
-16 0 -6 -8 -7 -17 -4 -11 4 -8 -2 7 -14 20 -15 21 -20 8 -20 -9 0 -20 5 -23
10 -4 6 -11 7 -17 4 -6 -4 -8 -2 -4 4 8 13 -10 26 -25 16 -8 -4 -7 -9 2 -15
10 -6 5 -9 -16 -8 -16 1 -43 -3 -60 -8 -16 -6 -36 -8 -43 -6 -7 3 -11 -1 -10
-7 2 -7 -5 -14 -15 -15 -17 -3 -17 -2 -4 18 8 12 23 21 32 21 9 -1 14 1 11 4
-6 6 48 32 65 32 5 0 9 -7 9 -16 0 -8 5 -12 11 -9 6 4 8 13 5 21 -6 15 6 17
53 8z m67 -28 c3 -8 11 -13 18 -10 17 6 78 -51 74 -69 -2 -9 6 -23 17 -32 11
-9 14 -14 8 -10 -19 9 -16 -3 7 -32 11 -14 20 -31 20 -37 0 -7 -3 -8 -8 -1 -8
12 -27 13 -38 3 -12 -12 -24 -9 -24 6 0 7 7 19 15 26 8 7 12 16 9 21 -3 5 -13
2 -22 -7 -15 -16 -17 -15 -23 7 -4 15 0 31 9 42 8 9 12 20 8 24 -4 4 -11 2
-15 -6 -7 -10 -9 -10 -14 3 -3 8 -1 16 5 18 6 2 3 11 -8 22 -12 13 -19 15 -22
7 -3 -8 -9 -6 -18 6 -13 17 -14 17 -8 -2 7 -20 7 -20 -9 0 -15 20 -14 35 4 35
5 0 12 -6 15 -14z m-41 -37 c68 -17 77 -33 73 -129 -3 -77 -2 -80 14 -61 9 12
24 21 32 21 30 0 28 -29 -4 -70 -18 -22 -28 -45 -24 -51 4 -8 3 -9 -4 -5 -11
6 -38 -31 -34 -46 1 -4 -10 -3 -24 2 -14 6 -46 10 -72 10 -56 0 -105 13 -141
37 -14 9 -31 18 -38 19 -17 3 -25 -25 -13 -44 8 -15 9 -14 10 6 0 12 4 22 8
22 16 0 21 -13 12 -29 -12 -24 37 -51 70 -39 12 5 20 11 17 14 -3 3 -14 1 -25
-5 -15 -8 -23 -6 -37 9 -10 11 -15 23 -12 26 4 4 9 0 13 -9 4 -12 13 -15 29
-11 13 3 30 2 37 -2 7 -4 28 -7 46 -5 20 2 32 -1 28 -7 -3 -5 3 -12 14 -15 11
-3 23 -1 26 4 3 5 -1 9 -8 10 -9 0 -9 2 -1 5 12 6 73 -22 73 -33 0 -3 -3 -3
-7 0 -3 4 -12 2 -20 -5 -11 -8 -12 -7 -7 6 4 11 1 16 -11 16 -10 0 -13 -5 -9
-12 5 -7 3 -8 -6 -3 -10 6 -12 4 -7 -8 8 -22 -9 -22 -22 1 -8 13 -10 14 -11 2
0 -10 -5 -7 -15 7 -9 12 -22 20 -30 18 -8 -3 -22 -7 -31 -10 -8 -3 -12 -10 -9
-15 5 -8 11 -7 20 0 11 9 19 7 35 -8 l21 -20 -43 9 c-116 21 -171 65 -192 151
-5 22 -3 26 9 22 8 -3 14 -9 13 -12 -2 -22 4 -31 22 -29 22 1 22 1 22 134 1
72 3 85 23 103 40 38 111 49 190 29z m-220 -59 c0 -18 -8 -35 -20 -44 -17 -12
-18 -17 -6 -28 8 -8 11 -8 7 -1 -3 6 -1 15 5 19 7 4 9 3 5 -4 -3 -6 -2 -13 2
-16 5 -3 7 -17 4 -32 -3 -18 -7 -22 -13 -13 -4 8 -3 20 4 29 10 13 10 13 -5 2
-9 -8 -22 -11 -27 -8 -15 10 -23 -12 -11 -31 9 -15 10 -14 5 7 l-6 25 15 -25
c8 -14 12 -28 10 -32 -3 -5 2 -8 11 -8 10 0 13 5 9 12 -4 7 -3 8 4 4 15 -9 -3
-46 -21 -46 -9 0 -9 2 0 8 9 6 3 14 -18 26 -29 17 -31 21 -25 60 4 22 8 47 8
54 1 7 8 10 16 7 12 -4 13 -3 3 9 -10 12 -9 20 6 39 23 31 38 26 38 -13z m389
-106 c21 -8 21 -34 0 -34 -10 0 -14 6 -11 14 3 8 1 17 -6 20 -18 7 -1 7 17 0z
m-4 -55 c0 8 2 12 6 9 3 -3 -2 -21 -10 -39 -9 -19 -14 -25 -13 -14 1 12 -3 19
-11 17 -10 -2 -10 2 -1 19 9 17 13 19 20 8 7 -12 9 -12 9 0z m-35 -48 c-3 -5
0 -13 6 -17 9 -5 8 -10 -2 -18 -8 -6 -24 -24 -37 -40 -12 -16 -22 -27 -23 -25
-9 47 -8 51 11 56 11 3 21 9 21 14 1 5 3 14 4 19 1 6 3 12 4 15 0 3 6 5 12 5
5 0 8 -4 4 -9z"/>
<path d="M1341 2731 c-9 -6 -10 -11 -2 -15 6 -4 11 -2 11 4 0 6 5 8 12 4 7 -4
8 -3 4 4 -8 14 -7 14 -25 3z"/>
<path d="M1575 2620 c-3 -5 1 -10 9 -10 9 0 16 5 16 10 0 6 -4 10 -9 10 -6 0
-13 -4 -16 -10z"/>
<path d="M1609 2553 c-12 -16 -12 -17 2 -6 9 7 20 9 24 5 5 -4 5 -1 1 6 -9 16
-11 15 -27 -5z"/>
<path d="M1217 2626 c-3 -8 0 -17 8 -19 17 -7 25 1 18 19 -7 18 -19 18 -26 0z"/>
<path d="M1555 2360 c-3 -5 -1 -10 4 -10 6 0 11 5 11 10 0 6 -2 10 -4 10 -3 0
-8 -4 -11 -10z"/>
<path d="M900 2466 c0 -2 8 -10 18 -17 15 -13 16 -12 3 4 -13 16 -21 21 -21
13z"/>
<path d="M811 2334 c0 -11 3 -14 6 -6 3 7 2 16 -1 19 -3 4 -6 -2 -5 -13z"/>
<path d="M1040 2287 c0 -11 -11 -17 -37 -20 l-38 -4 38 -1 c26 -1 39 3 44 13
3 9 3 19 -1 22 -3 4 -6 -1 -6 -10z"/>
<path d="M1722 2279 c-16 -6 -22 -17 -22 -39 0 -38 22 -48 88 -40 43 5 47 8
50 34 2 16 0 32 -5 37 -13 13 -84 18 -111 8z m103 -39 c0 -23 -4 -25 -53 -28
-55 -3 -71 9 -58 44 4 11 18 14 58 12 49 -3 53 -5 53 -28z"/>
<path d="M1864 2275 c-3 -7 -4 -28 -1 -47 l4 -33 1 38 c2 36 3 37 43 37 44 0
51 -20 10 -30 l-23 -5 26 -24 c14 -14 26 -20 26 -14 0 6 -6 13 -12 16 -10 3
-8 10 6 25 15 17 16 25 7 36 -15 18 -81 19 -87 1z"/>
<path d="M2104 2275 c-10 -7 -14 -22 -12 -40 3 -29 5 -30 53 -31 l50 -2 -45 7
c-40 5 -45 9 -45 31 0 22 5 25 43 28 23 2 42 7 42 12 0 13 -67 9 -86 -5z"/>
<path d="M2318 2279 c-11 -6 -18 -22 -18 -39 0 -36 23 -49 70 -39 l35 6 -42 2
c-55 1 -68 21 -14 21 23 0 41 5 41 10 0 6 -18 10 -41 10 -24 0 -38 4 -34 10 3
6 24 10 46 10 21 0 39 5 39 10 0 13 -60 12 -82 -1z"/>
<path d="M2001 2246 c-23 -37 -28 -57 -9 -38 7 7 21 13 33 13 17 1 17 2 2 6
-10 3 -16 10 -14 16 7 22 23 17 41 -14 10 -17 20 -28 23 -25 7 7 -36 76 -47
76 -5 0 -18 -15 -29 -34z"/>
<path d="M2222 2244 c-2 -39 0 -42 28 -46 17 -3 30 -1 30 4 0 4 -11 8 -24 8
-21 0 -25 5 -29 38 l-4 37 -1 -41z"/>
<path d="M848 2263 c7 -3 16 -2 19 1 4 3 -2 6 -13 5 -11 0 -14 -3 -6 -6z"/>
<path d="M918 2263 c7 -3 16 -2 19 1 4 3 -2 6 -13 5 -11 0 -14 -3 -6 -6z"/>
<path d="M1336 2199 c-85 -101 -81 -99 -163 -113 -97 -17 -198 -55 -284 -106
-77 -46 -221 -178 -201 -186 6 -3 9 -10 6 -16 -4 -6 -9 -6 -14 3 -6 8 -23 -10
-54 -59 -42 -64 -64 -111 -33 -68 12 16 20 14 117 -36 59 -29 104 -59 103 -65
-5 -24 7 -13 40 40 19 28 58 75 88 102 30 28 53 53 52 56 -1 4 3 6 10 6 7 -1
37 11 67 26 162 77 351 75 504 -6 74 -39 163 -121 206 -187 28 -44 34 -48 56
-40 53 20 163 100 139 100 -4 0 -43 -18 -86 -40 -44 -22 -81 -40 -83 -40 -6 0
26 64 34 70 10 7 8 40 -2 34 -5 -3 -6 -10 -3 -15 4 -5 1 -9 -4 -9 -6 0 -11 7
-11 15 0 18 -16 20 -26 3 -5 -7 -2 -8 7 -3 11 6 11 5 2 -5 -11 -12 -37 -5 -29
9 3 4 -5 7 -17 7 -25 -1 -30 23 -7 42 13 10 13 11 -3 6 -10 -4 -17 -3 -16 2 4
21 -2 30 -21 31 -11 1 -20 -2 -20 -8 0 -5 4 -9 8 -9 5 0 14 -11 20 -25 12 -27
2 -34 -17 -12 -6 8 -7 18 -3 22 4 5 0 6 -10 2 -13 -5 -16 1 -14 38 2 39 0 43
-16 34 -25 -13 -43 -2 -27 17 6 7 15 11 20 8 5 -3 9 0 9 5 0 6 6 10 13 9 7 -2
11 5 9 16 -3 17 -2 18 12 7 13 -11 16 -11 16 1 0 8 -3 18 -7 22 -17 17 -10 36
13 36 17 0 22 -4 18 -15 -4 -8 -10 -12 -15 -9 -5 3 -9 0 -9 -5 0 -6 5 -11 10
-11 6 0 10 -7 10 -16 0 -8 5 -12 10 -9 6 3 10 0 10 -7 0 -9 3 -9 10 2 5 8 10
10 10 5 0 -6 14 -12 30 -13 32 -2 39 8 17 27 -9 7 -17 7 -23 1 -6 -6 -18 -4
-32 6 -26 18 -29 34 -6 34 9 0 13 -5 9 -12 -4 -7 0 -5 8 5 14 17 53 14 42 -3
-9 -15 12 -20 24 -6 9 11 4 20 -26 44 -52 41 -179 105 -192 97 -6 -3 -11 -2
-11 4 0 9 -29 20 -105 40 -31 8 -46 20 -67 53 -15 24 -38 56 -51 72 l-23 29
-28 -34z m41 4 c-4 -3 -2 -12 4 -19 7 -8 7 -14 -1 -19 -5 -3 -10 -11 -10 -18
0 -8 3 -8 12 1 16 16 28 15 28 -1 0 -6 14 -25 30 -40 17 -16 30 -33 30 -39 0
-5 10 -6 23 -3 18 5 19 4 7 -5 -12 -8 -8 -10 16 -6 38 5 65 -8 38 -18 -10 -4
-21 -1 -26 6 -6 11 -8 10 -8 0 0 -9 -7 -11 -19 -7 -11 3 -21 0 -24 -8 -3 -8
-18 -14 -33 -14 l-28 0 22 17 c12 10 22 24 22 32 -1 9 -5 8 -14 -4 -7 -10 -18
-18 -25 -18 -6 0 -11 -6 -11 -12 0 -9 -4 -8 -10 2 -8 13 -10 12 -10 -3 0 -16
-2 -16 -25 -1 -23 15 -25 15 -25 0 0 -9 8 -16 20 -16 11 0 23 -7 26 -15 4 -8
10 -12 15 -9 5 3 7 9 4 14 -3 4 12 4 32 0 20 -5 40 -7 44 -4 4 2 9 -2 12 -8 4
-10 7 -11 18 0 11 10 11 12 -2 12 -12 0 -12 2 1 10 19 12 28 -4 26 -40 -2 -26
0 -27 19 -15 25 16 65 3 65 -21 0 -13 3 -14 15 -4 11 9 18 10 28 1 8 -6 17 -8
21 -4 3 3 0 -11 -7 -33 -15 -43 -45 -56 -67 -29 -7 8 -23 15 -36 15 -12 0 -26
5 -29 10 -3 6 -19 10 -36 10 -16 0 -29 3 -29 8 0 4 -19 7 -43 7 -24 0 -40 -5
-37 -10 3 -6 8 -9 13 -7 4 1 7 -3 7 -8 0 -5 5 -10 11 -10 5 0 7 5 4 10 -3 6
-1 10 4 10 6 0 11 -9 11 -21 0 -11 5 -17 10 -14 6 4 8 10 5 15 -7 11 61 7 71
-3 4 -4 16 -7 26 -7 13 0 17 -4 11 -12 -12 -20 -15 -58 -4 -58 6 0 8 6 5 13
-3 8 2 14 11 14 8 0 15 -6 15 -14 0 -7 7 -16 16 -20 11 -4 12 -8 4 -13 -7 -4
-29 1 -50 11 -39 19 -60 39 -41 39 6 0 11 -5 11 -12 0 -6 2 -9 5 -6 10 10 -16
65 -30 65 -8 0 -15 -4 -15 -9 0 -4 -9 -8 -19 -8 -11 0 -23 -5 -26 -10 -5 -8
-11 -8 -19 -1 -7 6 -17 7 -21 3 -5 -4 -4 -1 0 7 6 10 4 13 -6 9 -14 -5 -42 15
-33 24 2 3 -3 5 -11 5 -8 0 -15 -6 -15 -14 0 -7 -9 -13 -20 -13 -43 0 -15 33
38 45 17 3 32 11 32 16 0 11 -14 12 -24 2 -12 -12 -135 -11 -145 1 -5 6 -11
22 -14 36 -4 15 -5 10 -3 -12 2 -37 -17 -54 -27 -25 -2 6 -3 5 -2 -4 3 -21
-48 -33 -75 -19 -13 7 -20 6 -24 -6 -3 -8 -22 -22 -41 -30 -42 -17 -44 -24 -7
-21 21 2 26 -2 24 -17 -2 -10 1 -15 7 -12 5 4 12 2 16 -4 3 -6 -1 -13 -10 -17
-16 -6 -38 14 -30 27 2 3 -9 7 -25 8 -16 1 -31 -2 -34 -6 -3 -5 6 -7 21 -4 22
4 25 2 20 -12 -4 -11 -3 -15 4 -10 7 4 10 -1 7 -12 -2 -11 -12 -19 -25 -20
-13 -1 -19 4 -17 11 3 6 -2 12 -10 12 -8 0 -13 -8 -11 -19 2 -10 0 -16 -4 -14
-4 3 -20 -1 -35 -9 -14 -8 -25 -11 -22 -7 3 5 0 14 -5 22 -9 12 -10 12 -7 1 2
-8 -7 -25 -20 -38 -12 -13 -20 -28 -17 -33 3 -6 2 -10 -4 -10 -5 0 -13 -9 -16
-21 -4 -11 -9 -18 -12 -15 -4 3 -11 2 -17 -3 -13 -10 -56 4 -56 18 0 5 7 11
15 15 10 4 14 17 13 41 -3 34 -18 51 -18 19 0 -9 -6 -14 -12 -12 -7 3 -20 -5
-30 -16 -17 -20 -17 -20 -12 24 3 25 5 54 5 64 0 33 17 53 41 50 13 -1 23 -3
23 -4 0 -1 10 -3 23 -6 19 -3 21 -2 10 10 -7 8 -15 10 -16 5 -2 -6 -10 -5 -18
2 -18 15 -19 36 -1 21 6 -5 21 -8 33 -6 12 2 30 -4 40 -12 10 -9 14 -13 7 -10
-6 4 -14 3 -17 -2 -3 -5 10 -8 28 -8 31 1 33 3 23 23 -5 12 -15 19 -22 17 -7
-3 -15 4 -18 15 -5 21 -27 30 -27 11 0 -5 -8 -10 -17 -10 -14 1 -12 5 9 23 28
22 71 28 85 12 5 -4 2 -5 -6 0 -19 11 -4 -34 20 -60 19 -19 19 -19 19 5 l1 25
20 -24 c11 -13 23 -21 27 -17 4 4 -1 12 -11 18 -14 8 -16 13 -6 24 9 11 9 14
0 14 -7 0 -9 5 -6 10 3 6 2 10 -4 10 -6 0 -15 -9 -21 -20 -14 -25 -30 -17 -23
11 3 11 11 18 19 15 8 -3 12 2 11 15 -1 10 -5 19 -9 19 -19 0 -6 16 14 17 11
1 25 8 29 15 5 7 9 9 9 4 0 -6 5 -5 12 2 7 7 17 8 30 1 12 -7 18 -6 18 1 0 6
5 8 12 4 8 -5 9 -2 5 10 -4 10 -3 15 3 11 6 -3 10 -13 10 -21 0 -14 -17 -19
-53 -16 -11 1 -15 -2 -11 -9 4 -8 -1 -9 -15 -4 -15 4 -21 3 -19 -6 2 -7 -3
-14 -9 -15 -26 -3 -28 -5 -12 -17 22 -17 29 -43 16 -57 -10 -10 -8 -12 6 -7
10 4 15 3 12 -2 -3 -5 0 -13 6 -17 9 -5 10 1 5 22 -20 82 -20 81 15 89 27 6
36 4 51 -15 14 -17 18 -18 18 -7 0 10 15 21 40 28 45 14 54 28 15 24 -16 -2
-25 2 -25 11 0 8 -5 14 -11 14 -5 0 -8 -3 -6 -7 8 -14 -12 -55 -23 -48 -8 5
-7 11 1 21 6 8 9 23 6 33 -6 23 29 37 37 14 3 -8 10 -12 15 -9 5 4 11 1 13 -6
7 -19 30 3 25 23 -3 11 -1 16 5 13 5 -3 8 -15 5 -25 -8 -28 27 -48 73 -42 31
4 39 2 43 -13 3 -14 5 -11 6 8 1 28 -17 48 -28 31 -3 -6 -14 -2 -26 10 -11 11
-14 17 -5 13 8 -4 6 0 -4 8 -14 12 -16 16 -5 16 24 0 42 -17 34 -30 -5 -9 -4
-11 4 -6 7 4 10 13 8 19 -2 7 3 17 12 24 14 11 13 12 -6 8 -13 -2 -23 0 -23 5
0 13 32 21 45 10 8 -7 12 -5 12 5 0 8 -7 17 -15 20 -12 4 -8 13 19 40 19 19
38 35 43 35 5 0 6 -3 3 -7z m-149 -168 c0 -20 -3 -23 -14 -14 -10 8 -11 14 -1
24 7 8 13 14 13 15 1 0 2 -11 2 -25z m430 -15 c2 0 0 -5 -4 -12 -5 -7 -2 -9 9
-5 9 3 18 -1 21 -10 9 -22 -1 -28 -19 -13 -13 11 -14 10 -9 -5 5 -12 4 -16 -4
-11 -6 3 -14 1 -18 -5 -5 -8 -3 -9 6 -4 9 6 11 4 5 -4 -9 -15 -22 -3 -27 24
-2 13 2 19 10 17 8 -1 11 2 7 8 -11 18 -34 11 -30 -10 5 -24 -13 -26 -41 -5
-13 11 -14 14 -4 13 8 -2 18 -7 22 -13 4 -6 8 -2 8 8 0 12 -8 17 -26 17 -16 0
-23 4 -18 11 4 7 25 9 58 5 28 -3 52 -6 54 -6z m70 -43 c11 4 17 -9 13 -31 -1
-5 4 -4 11 2 10 8 20 6 38 -9 21 -17 22 -19 3 -10 -27 14 -36 14 -28 1 7 -12
-8 -14 -19 -2 -4 4 -24 7 -44 7 -21 0 -37 6 -40 14 -3 10 0 12 13 8 26 -10 37
1 24 26 -9 19 -8 20 3 6 7 -9 19 -14 26 -12z m-803 -6 c8 -14 -10 -22 -30 -15
-13 5 -14 8 -3 15 17 11 26 11 33 0z m319 -57 c15 -6 15 -8 -1 -19 -12 -9 -22
-10 -30 -3 -9 7 -11 2 -8 -21 4 -28 1 -31 -33 -38 -20 -4 -45 -6 -55 -4 -24 3
-57 32 -50 44 3 4 15 0 27 -11 18 -17 37 -20 79 -13 4 0 2 10 -5 21 -7 10 -8
23 -4 27 5 4 11 2 13 -4 3 -7 9 -13 14 -13 6 0 8 4 4 9 -3 6 3 14 12 20 22 13
18 12 37 5z m61 -20 c-18 -19 -19 -31 -2 -37 6 -3 3 -6 -8 -6 -14 -1 -21 6
-22 19 -1 11 2 18 8 15 5 -4 9 -1 9 4 0 6 -6 11 -12 12 -7 0 -4 4 7 8 27 11
38 3 20 -15z m-195 -20 c0 -8 5 -12 10 -9 6 4 8 10 6 14 -3 4 1 8 9 8 8 0 13
-3 10 -5 -3 -3 -1 -10 4 -16 7 -8 2 -11 -15 -11 -14 1 -30 8 -35 16 -12 19
-11 32 1 24 6 -3 10 -13 10 -21z m150 9 c0 -14 -19 -38 -25 -32 -8 8 5 39 16
39 5 0 9 -3 9 -7z m110 -23 c0 -5 -5 -10 -11 -10 -5 0 -7 5 -4 10 3 6 8 10 11
10 2 0 4 -4 4 -10z m234 -8 c3 -5 -1 -9 -9 -9 -8 0 -12 4 -9 9 3 4 7 8 9 8 2
0 6 -4 9 -8z m59 -68 c-7 -3 -9 -12 -6 -20 3 -8 0 -14 -6 -14 -12 0 -15 23 -4
33 3 4 11 7 17 6 7 0 6 -2 -1 -5z m-967 -36 c-15 -48 -15 -49 -36 -38 -34 18
-28 26 37 49 1 1 1 -5 -1 -11z m281 -4 c-3 -3 -12 -4 -19 -1 -8 3 -5 6 6 6 11
1 17 -2 13 -5z m-53 -39 c-4 -8 -10 -15 -15 -15 -5 0 -15 -13 -24 -29 -9 -18
-22 -29 -34 -28 -15 1 -17 4 -7 19 6 10 19 21 28 24 9 3 15 11 12 19 -3 7 0
16 5 20 6 3 8 11 5 17 -4 6 1 6 14 -1 13 -7 19 -17 16 -26z m36 20 c0 -12 -19
-12 -23 0 -4 9 -1 12 9 8 7 -3 14 -7 14 -8z m-212 -60 c-3 -3 -9 2 -12 12 -6
14 -5 15 5 6 7 -7 10 -15 7 -18z m1047 -27 c5 4 5 1 1 -5 -4 -7 -2 -13 3 -13
6 0 11 5 11 12 0 6 3 9 6 5 3 -3 2 -12 -2 -19 -5 -7 -9 -16 -9 -20 0 -3 -4
-10 -9 -15 -5 -5 -6 -3 -2 5 4 6 2 12 -4 12 -6 0 -9 4 -6 9 3 5 -1 14 -9 21
-8 7 -15 18 -15 24 0 6 7 3 14 -6 7 -10 17 -14 21 -10z"/>
<path d="M1351 2173 c-5 -10 -13 -17 -18 -15 -4 2 -8 -1 -9 -7 -2 -7 -1 -8 3
-1 2 5 8 8 12 5 5 -2 16 2 26 9 12 8 14 15 7 20 -6 3 -15 -2 -21 -11z"/>
<path d="M1385 2140 c-3 -5 -12 -7 -21 -3 -11 4 -14 -2 -12 -26 2 -32 18 -44
18 -14 0 9 7 25 17 35 9 10 13 18 10 18 -3 0 -8 -4 -12 -10z"/>
<path d="M1404 2123 c4 -8 1 -13 -9 -13 -12 0 -14 -4 -6 -18 7 -13 7 -22 0
-29 -7 -7 -2 -10 16 -10 20 0 25 3 19 16 -3 9 -7 24 -8 33 -1 10 -6 21 -11 25
-4 5 -5 2 -1 -4z"/>
<path d="M1306 2081 c-9 -14 5 -42 18 -38 18 6 20 47 2 47 -8 0 -17 -4 -20 -9z"/>
<path d="M1350 2056 c0 -8 6 -16 14 -19 10 -4 12 0 9 14 -6 22 -23 26 -23 5z"/>
<path d="M1244 1979 c-10 -17 13 -36 27 -22 12 12 4 33 -11 33 -5 0 -12 -5
-16 -11z"/>
<path d="M1337 1975 c-8 -18 11 -31 25 -17 11 11 3 32 -12 32 -4 0 -10 -7 -13
-15z"/>
<path d="M1426 1973 c-12 -12 -6 -33 9 -33 8 0 15 6 15 14 0 17 -14 28 -24 19z"/>
<path d="M1114 1959 c-10 -17 13 -36 27 -22 12 12 4 33 -11 33 -5 0 -12 -5
-16 -11z"/>
<path d="M1481 1954 c0 -11 3 -14 6 -6 3 7 2 16 -1 19 -3 4 -6 -2 -5 -13z"/>
<path d="M1024 1934 c9 -36 14 -40 27 -27 16 16 7 47 -15 51 -16 3 -18 0 -12
-24z m24 -9 c-3 -3 -9 2 -12 12 -6 14 -5 15 5 6 7 -7 10 -15 7 -18z"/>
<path d="M920 1830 c0 -13 5 -20 13 -17 6 2 12 10 12 17 0 7 -6 15 -12 18 -8
2 -13 -5 -13 -18z"/>
<path d="M727 1759 c7 -7 15 -10 18 -7 3 3 -2 9 -12 12 -14 6 -15 5 -6 -5z"/>
<path d="M840 1753 c0 -4 5 -15 10 -23 8 -13 10 -13 10 2 0 9 -4 20 -10 23 -5
3 -10 3 -10 -2z"/>
<path d="M807 1713 c-12 -12 -7 -19 15 -20 13 -1 18 1 13 5 -6 4 -13 11 -16
15 -3 4 -9 4 -12 0z"/>
<path d="M795 1670 c-3 -6 1 -7 9 -4 18 7 21 14 7 14 -6 0 -13 -4 -16 -10z"/>
<path d="M655 1730 c-3 -6 1 -7 9 -4 18 7 21 14 7 14 -6 0 -13 -4 -16 -10z"/>
<path d="M358 2110 c-60 -11 -123 -46 -137 -77 -58 -127 324 -182 405 -58 54
83 -106 163 -268 135z m72 -25 c0 -8 6 -15 14 -15 8 0 22 -7 30 -16 15 -14 16
-14 16 0 0 19 50 22 81 6 39 -21 11 -90 -36 -90 -13 0 -25 -7 -29 -15 -3 -8
-12 -15 -21 -15 -8 0 -15 7 -15 15 0 8 -7 15 -16 15 -13 0 -15 7 -11 35 4 26
2 35 -8 35 -8 0 -17 -15 -21 -35 -4 -26 -11 -35 -26 -35 -11 0 -16 4 -12 11 5
8 1 8 -14 0 -11 -6 -30 -11 -41 -11 -12 0 -21 -7 -21 -15 0 -8 -7 -15 -16 -15
-14 0 -16 8 -10 50 4 28 9 57 12 65 7 17 56 20 85 5 16 -9 19 -7 19 8 0 10 3
22 7 25 12 13 33 7 33 -8z"/>
<path d="M316 2024 c-4 -9 -4 -19 -2 -22 10 -9 36 8 36 23 0 20 -26 19 -34 -1z"/>
<path d="M517 2020 c-4 -15 0 -20 14 -20 12 0 19 7 19 20 0 11 -6 20 -14 20
-7 0 -16 -9 -19 -20z"/>
<path d="M1845 1889 c-4 -6 -5 -11 -4 -12 2 -1 17 -9 33 -17 16 -8 37 -27 45
-42 9 -15 29 -37 44 -49 17 -12 26 -27 23 -36 -4 -8 -1 -11 5 -7 6 3 3 -5 -6
-20 -10 -14 -21 -26 -26 -26 -5 0 -9 -4 -9 -9 0 -6 12 -6 30 0 17 6 27 16 23
22 -4 6 0 8 11 4 14 -6 15 -4 5 16 -24 44 -61 87 -72 80 -6 -4 -7 -1 -2 6 5 8
-8 29 -36 57 -45 46 -54 51 -64 33z"/>
<path d="M1856 1846 c3 -9 1 -16 -5 -16 -6 0 -8 -7 -5 -15 4 -8 12 -15 20 -15
8 0 11 -6 8 -15 -4 -8 -10 -15 -16 -15 -5 0 -6 5 -3 10 3 6 1 10 -5 10 -24 0
-3 -36 30 -52 34 -16 35 -16 42 3 13 33 -14 75 -44 70 -5 0 -8 8 -8 18 0 11
-4 23 -10 26 -6 3 -7 -1 -4 -9z m52 -67 c-2 -6 -8 -10 -13 -10 -5 0 -11 4 -13
10 -2 6 4 11 13 11 9 0 15 -5 13 -11z"/>
<path d="M1942 1734 c-1 -20 1 -35 4 -32 8 9 13 68 5 68 -4 0 -8 -16 -9 -36z"/>
<path d="M1884 1672 c4 -7 1 -12 -9 -12 -9 0 -15 -6 -12 -12 2 -7 -2 -21 -10
-30 -14 -16 -13 -16 18 0 54 28 58 32 52 49 -5 14 -8 13 -14 -5 -5 -12 -16
-22 -26 -22 -15 0 -15 1 2 13 14 11 15 16 5 22 -9 5 -11 4 -6 -3z"/>
<path d="M556 1590 c-22 -56 -19 -65 5 -11 11 24 18 46 15 48 -2 2 -11 -14
-20 -37z"/>
<path d="M1004 1593 c48 -166 58 -194 73 -191 10 2 22 24 31 56 8 28 18 52 22
52 4 0 12 -25 19 -55 9 -41 17 -55 30 -55 13 0 23 21 44 95 32 113 32 115 8
115 -14 0 -21 -13 -31 -60 -7 -33 -16 -60 -19 -60 -4 0 -14 26 -22 57 -21 81
-41 81 -63 1 -20 -69 -24 -67 -46 20 -8 32 -16 42 -31 42 -15 0 -19 -5 -15
-17z"/>
<path d="M1460 1506 l0 -103 59 -2 c53 -1 62 2 80 25 27 34 27 74 -1 109 -19
24 -26 27 -65 22 -42 -4 -43 -4 -43 24 0 19 -5 29 -15 29 -12 0 -15 -18 -15
-104z m104 8 c43 -42 -10 -109 -54 -69 -26 24 -25 50 2 69 28 20 33 20 52 0z"/>
<path d="M1285 1535 c-31 -30 -32 -73 -4 -109 27 -34 88 -37 120 -5 28 28 17
35 -31 19 -32 -10 -42 -11 -55 0 -28 23 -16 30 51 30 63 0 65 1 59 23 -21 67
-94 89 -140 42z m79 -11 c32 -12 17 -32 -21 -29 -21 2 -40 3 -42 4 -2 1 2 8 9
16 13 16 29 19 54 9z"/>
<path d="M521 1474 c0 -11 3 -14 6 -6 3 7 2 16 -1 19 -3 4 -6 -2 -5 -13z"/>
<path d="M511 1424 c0 -11 3 -14 6 -6 3 7 2 16 -1 19 -3 4 -6 -2 -5 -13z"/>
<path d="M502 1350 c0 -19 2 -27 5 -17 2 9 2 25 0 35 -3 9 -5 1 -5 -18z"/>
<path d="M976 1260 c-20 -50 -20 -59 -1 -34 8 10 15 27 15 37 0 23 20 22 20
-1 0 -10 7 -27 16 -38 15 -19 16 -19 9 1 -31 90 -36 93 -59 35z"/>
<path d="M1233 1255 c0 -27 2 -38 4 -22 2 15 2 37 0 50 -2 12 -4 0 -4 -28z"/>
<path d="M1468 1288 c-2 -7 -1 -29 2 -48 l6 -35 5 38 c5 38 -4 71 -13 45z"/>
<path d="M1051 1228 c1 -29 3 -45 6 -35 3 11 14 17 33 17 20 0 31 6 35 20 9
28 -11 50 -46 50 -28 0 -29 -1 -28 -52z m62 30 c7 -21 -4 -38 -23 -38 -23 0
-32 13 -24 34 7 19 40 21 47 4z"/>
<path d="M1141 1228 c1 -29 3 -45 6 -35 2 9 9 17 15 17 6 0 6 6 -2 15 -15 18
-6 45 13 45 8 0 20 -6 26 -14 9 -11 8 -18 -4 -30 -9 -9 -12 -16 -7 -16 5 0 15
6 21 14 20 24 -4 56 -39 56 -30 0 -30 -1 -29 -52z"/>
<path d="M1263 1245 c0 -22 2 -30 4 -17 2 12 2 30 0 40 -3 9 -5 -1 -4 -23z"/>
<path d="M1290 1265 c-20 -24 -3 -55 31 -55 16 0 29 4 29 9 0 4 -11 6 -24 4
-27 -6 -39 7 -30 32 5 11 15 15 30 12 13 -2 21 0 18 4 -8 14 -40 10 -54 -6z"/>
<path d="M1374 1266 c-9 -22 -1 -49 16 -54 13 -5 13 -3 1 11 -16 20 -8 47 14
47 21 0 30 -27 15 -45 -10 -12 -9 -15 4 -15 12 0 16 9 16 35 0 32 -2 35 -30
35 -17 0 -33 -6 -36 -14z"/>
<path d="M1503 1245 c0 -22 2 -30 4 -17 2 12 2 30 0 40 -3 9 -5 -1 -4 -23z"/>
<path d="M1531 1262 c-10 -19 3 -52 20 -52 6 0 3 7 -6 16 -12 12 -13 19 -4 30
6 8 18 14 26 14 20 0 27 -28 12 -47 -12 -14 -12 -16 1 -11 20 6 25 35 10 53
-17 20 -47 19 -59 -3z"/>
<path d="M1617 1273 c-11 -10 -8 -63 3 -63 6 0 10 14 10 30 0 41 27 39 39 -2
7 -24 9 -27 10 -11 2 35 -10 53 -33 53 -13 0 -26 -3 -29 -7z"/>
<path d="M502 1240 c0 -14 2 -19 5 -12 2 6 2 18 0 25 -3 6 -5 1 -5 -13z"/>
<path d="M648 1253 c7 -3 16 -2 19 1 4 3 -2 6 -13 5 -11 0 -14 -3 -6 -6z"/>
<path d="M680 1241 c0 -6 4 -13 10 -16 6 -3 7 1 4 9 -7 18 -14 21 -14 7z"/>
<path d="M761 1204 c0 -11 3 -14 6 -6 3 7 2 16 -1 19 -3 4 -6 -2 -5 -13z"/>
<path d="M189 1164 c-6 -16 -19 -50 -29 -77 -10 -26 -14 -49 -10 -52 10 -6 65
143 57 152 -4 3 -11 -7 -18 -23z"/>
<path d="M512 1170 c0 -14 4 -36 8 -50 6 -20 8 -21 8 -5 0 11 -4 34 -8 50 -7
27 -8 27 -8 5z"/>
<path d="M602 1150 c0 -14 2 -19 5 -12 2 6 2 18 0 25 -3 6 -5 1 -5 -13z"/>
<path d="M90 1135 l-24 -26 27 -26 c32 -32 50 -23 19 10 l-22 23 22 22 c13 12
18 22 12 22 -6 0 -21 -11 -34 -25z"/>
<path d="M230 1153 c0 -3 7 -15 17 -25 15 -17 15 -19 -2 -38 -28 -31 -8 -37
22 -7 l27 26 -24 26 c-23 24 -40 32 -40 18z"/>
<path d="M900 1095 c0 -43 1 -45 30 -45 17 0 33 7 40 18 10 16 10 16 20 0 6
-10 16 -18 23 -18 8 0 8 3 -1 9 -20 12 -10 46 13 46 11 0 19 -6 17 -12 -1 -7
2 -13 8 -13 12 0 12 3 4 24 -8 20 -50 21 -62 1 -7 -13 -10 -12 -20 10 -9 19
-19 25 -42 25 -29 0 -30 -2 -30 -45z m59 18 c12 -23 -4 -53 -29 -53 -16 0 -20
7 -20 35 0 28 4 35 20 35 10 0 23 -8 29 -17z"/>
<path d="M1233 1095 c0 -27 2 -38 4 -22 2 15 2 37 0 50 -2 12 -4 0 -4 -28z"/>
<path d="M1728 1128 c-2 -7 -1 -29 2 -48 l6 -35 5 38 c5 38 -4 71 -13 45z"/>
<path d="M711 1127 c2 -1 13 -9 24 -17 19 -14 19 -14 6 3 -7 9 -18 17 -24 17
-6 0 -8 -1 -6 -3z"/>
<path d="M1071 1119 c-2 -14 22 -69 29 -69 9 0 32 61 26 67 -2 3 -7 -5 -11
-16 -8 -27 -19 -27 -33 2 -6 12 -11 19 -11 16z"/>
<path d="M1144 1106 c-9 -22 -1 -49 16 -54 13 -5 13 -3 1 11 -12 15 -10 17 19
17 25 0 31 4 28 18 -4 22 -56 29 -64 8z m51 -6 c4 -6 -5 -10 -20 -10 -15 0
-24 4 -20 10 3 6 12 10 20 10 8 0 17 -4 20 -10z"/>
<path d="M1259 1104 c-17 -21 0 -48 34 -52 18 -2 27 2 32 18 13 41 -38 68 -66
34z m56 -19 c0 -21 -31 -33 -46 -18 -5 5 -7 17 -3 27 9 24 49 17 49 -9z"/>
<path d="M1340 1073 c0 -27 4 -43 8 -37 4 7 18 14 31 15 57 9 48 69 -10 69
-28 0 -29 -2 -29 -47z m57 26 c16 -16 5 -39 -17 -39 -23 0 -32 13 -24 34 7 19
25 21 41 5z"/>
<path d="M1431 1082 c1 -36 2 -36 8 -7 3 17 14 31 24 33 13 3 17 -4 18 -30 l1
-33 7 30 c3 17 13 30 21 30 8 0 18 -13 22 -30 6 -29 6 -29 5 5 l-2 35 -52 2
-53 3 1 -38z"/>
<path d="M1564 1106 c-8 -22 -1 -49 14 -52 7 -1 8 0 2 3 -21 10 -9 23 21 23
24 0 30 4 27 18 -4 22 -56 29 -64 8z m51 -6 c4 -6 -5 -10 -20 -10 -15 0 -24 4
-20 10 3 6 12 10 20 10 8 0 17 -4 20 -10z"/>
<path d="M1652 1083 c1 -38 1 -38 5 -5 5 42 35 40 45 -3 6 -29 6 -29 5 5 -2
30 -6 35 -29 38 -26 3 -28 1 -26 -35z"/>
<path d="M685 1078 c8 -20 -10 -25 -18 -5 -4 9 -6 9 -6 0 -1 -18 19 -27 32
-14 8 8 8 14 -2 24 -10 10 -11 9 -6 -5z"/>
<path d="M751 1074 c0 -11 3 -14 6 -6 3 7 2 16 -1 19 -3 4 -6 -2 -5 -13z"/>
<path d="M1035 1060 c-3 -5 -2 -10 4 -10 5 0 13 5 16 10 3 6 2 10 -4 10 -5 0
-13 -4 -16 -10z"/>
<path d="M1190 1060 c-9 -6 -10 -10 -3 -10 6 0 15 5 18 10 8 12 4 12 -15 0z"/>
<path d="M1610 1060 c-9 -6 -10 -10 -3 -10 6 0 15 5 18 10 8 12 4 12 -15 0z"/>
<path d="M630 1053 c0 -6 8 -17 18 -24 16 -13 16 -13 2 6 -8 11 -16 22 -17 24
-2 2 -3 0 -3 -6z"/>
<path d="M740 1028 c13 -14 20 -32 17 -45 -2 -12 0 -20 4 -17 5 3 9 12 9 20 0
19 -29 64 -42 64 -5 0 1 -10 12 -22z"/>
<path d="M650 1005 c0 -5 5 -17 10 -25 5 -8 10 -10 10 -5 0 6 -5 17 -10 25 -5
8 -10 11 -10 5z"/>
<path d="M701 987 c-1 -21 21 -18 27 4 3 12 2 12 -6 0 -8 -11 -10 -11 -15 0
-4 10 -6 8 -6 -4z"/>
<path d="M547 908 c-9 -23 -15 -43 -13 -45 2 -2 11 15 20 38 9 23 15 43 13 45
-2 2 -11 -15 -20 -38z"/>
<path d="M693 935 c0 -8 4 -12 9 -9 5 3 6 10 3 15 -9 13 -12 11 -12 -6z"/>
<path d="M736 917 c-16 -12 -16 -14 -2 -14 9 0 16 4 16 9 0 5 5 6 10 3 6 -3
10 -1 10 4 0 15 -12 14 -34 -2z"/>
<path d="M796 914 c-6 -15 -1 -16 28 -5 19 7 19 8 -1 13 -14 4 -24 0 -27 -8z"/>
<path d="M900 916 c0 -2 8 -10 18 -17 15 -13 16 -12 3 4 -13 16 -21 21 -21 13z"/>
<path d="M228 873 c18 -2 45 -2 60 0 15 2 0 4 -33 4 -33 0 -45 -2 -27 -4z"/>
<path d="M160 860 c-8 -5 -10 -10 -5 -10 6 0 17 5 25 10 8 5 11 10 5 10 -5 0
-17 -5 -25 -10z"/>
<path d="M365 848 c68 -35 104 -77 126 -148 5 -17 8 -19 8 -7 1 24 -26 76 -58
110 -24 27 -91 68 -108 67 -4 -1 10 -10 32 -22z"/>
<path d="M790 850 c0 -13 5 -20 13 -17 6 2 12 10 12 17 0 7 -6 15 -12 18 -8 2
-13 -5 -13 -18z"/>
<path d="M845 840 c-3 -6 1 -7 9 -4 18 7 21 14 7 14 -6 0 -13 -4 -16 -10z"/>
<path d="M79 803 l-34 -38 38 34 c34 33 42 41 34 41 -2 0 -19 -17 -38 -37z"/>
<path d="M248 833 c12 -2 30 -2 40 0 9 3 -1 5 -23 4 -22 0 -30 -2 -17 -4z"/>
<path d="M861 806 c-12 -13 -18 -27 -13 -30 11 -7 35 19 38 40 3 19 1 18 -25
-10z m19 0 c0 -2 -8 -10 -17 -17 -16 -13 -17 -12 -4 4 13 16 21 21 21 13z"/>
<path d="M510 810 c0 -5 5 -10 11 -10 5 0 7 5 4 10 -3 6 -8 10 -11 10 -2 0 -4
-4 -4 -10z"/>
<path d="M788 803 c6 -2 18 -2 25 0 6 3 1 5 -13 5 -14 0 -19 -2 -12 -5z"/>
<path d="M553 793 c9 -2 23 -2 30 0 6 3 -1 5 -18 5 -16 0 -22 -2 -12 -5z"/>
<path d="M911 797 c2 -1 13 -9 24 -17 19 -14 19 -14 6 3 -7 9 -18 17 -24 17
-6 0 -8 -1 -6 -3z"/>
<path d="M628 783 c6 -2 18 -2 25 0 6 3 1 5 -13 5 -14 0 -19 -2 -12 -5z"/>
<path d="M410 763 c0 -6 8 -17 18 -24 16 -13 16 -13 2 6 -8 11 -16 22 -17 24
-2 2 -3 0 -3 -6z"/>
<path d="M730 728 c41 -45 50 -53 50 -45 0 2 -21 23 -47 47 l-48 45 45 -47z"/>
<path d="M810 766 c0 -2 8 -10 18 -17 15 -13 16 -12 3 4 -13 16 -21 21 -21 13z"/>
<path d="M874 748 l-19 -23 23 19 c21 18 27 26 19 26 -2 0 -12 -10 -23 -22z"/>
<path d="M29 734 c-5 -15 -8 -29 -5 -31 2 -2 8 10 14 26 13 38 5 41 -9 5z"/>
<path d="M965 750 c3 -4 14 -10 25 -13 11 -3 18 -2 15 3 -3 4 -14 10 -25 13
-11 3 -18 2 -15 -3z"/>
<path d="M1168 753 c7 -3 16 -2 19 1 4 3 -2 6 -13 5 -11 0 -14 -3 -6 -6z"/>
<path d="M911 733 c0 -13 2 -14 6 -4 5 11 7 11 14 0 7 -11 9 -10 9 4 0 9 -7
17 -15 17 -8 0 -15 -8 -14 -17z"/>
<path d="M1219 740 c23 -10 24 -12 18 -113 -3 -57 -1 -110 3 -118 7 -10 3 -16
-18 -20 -24 -6 -23 -7 10 -8 l37 -1 5 53 c3 28 7 88 8 132 l3 80 -45 2 c-38 2
-41 1 -21 -7z"/>
<path d="M884 703 c20 -24 60 -31 71 -13 4 6 10 8 15 5 5 -3 11 -1 14 4 11 16
-11 22 -24 6 -17 -20 -49 -19 -74 3 -21 17 -21 17 -2 -5z"/>
<path d="M451 684 c0 -11 3 -14 6 -6 3 7 2 16 -1 19 -3 4 -6 -2 -5 -13z"/>
<path d="M1001 677 c-13 -21 -12 -21 5 -5 10 10 16 20 13 22 -3 3 -11 -5 -18
-17z"/>
<path d="M11 674 c0 -11 3 -14 6 -6 3 7 2 16 -1 19 -3 4 -6 -2 -5 -13z"/>
<path d="M503 635 c0 -22 2 -30 4 -17 2 12 2 30 0 40 -3 9 -5 -1 -4 -23z"/>
<path d="M11 584 c0 -11 3 -14 6 -6 3 7 2 16 -1 19 -3 4 -6 -2 -5 -13z"/>
<path d="M451 584 c0 -11 3 -14 6 -6 3 7 2 16 -1 19 -3 4 -6 -2 -5 -13z"/>
<path d="M491 578 c0 -9 -4 -25 -7 -35 -5 -17 -5 -17 6 0 6 10 9 25 7 35 -4
15 -5 15 -6 0z"/>
<path d="M70 564 c0 -6 7 -19 16 -30 14 -18 14 -18 3 6 -14 31 -19 36 -19 24z"/>
<path d="M20 555 c0 -5 5 -17 10 -25 5 -8 10 -10 10 -5 0 6 -5 17 -10 25 -5 8
-10 11 -10 5z"/>
<path d="M59 484 c11 -17 33 -39 48 -48 l28 -17 -25 21 c-14 12 -35 34 -48 48
l-24 27 21 -31z"/>
<path d="M449 483 c-13 -16 -12 -17 4 -4 9 7 17 15 17 17 0 8 -8 3 -21 -13z"/>
<path d="M178 448 c5 -5 16 -8 23 -6 8 3 3 7 -10 11 -17 4 -21 3 -13 -5z"/>
<path d="M408 444 c-9 -9 -40 -25 -70 -35 -29 -10 -45 -18 -35 -19 10 0 34 7
53 15 37 15 93 55 77 55 -5 0 -16 -7 -25 -16z"/>
<path d="M248 433 c6 -2 18 -2 25 0 6 3 1 5 -13 5 -14 0 -19 -2 -12 -5z"/>
<path d="M1833 418 c-43 -9 -43 -9 -43 -54 l0 -44 50 0 50 0 0 55 c0 30 -3 55
-7 54 -5 -1 -27 -5 -50 -11z"/>
<path d="M198 393 c7 -3 16 -2 19 1 4 3 -2 6 -13 5 -11 0 -14 -3 -6 -6z"/>
<path d="M248 383 c6 -2 18 -2 25 0 6 3 1 5 -13 5 -14 0 -19 -2 -12 -5z"/>
<path d="M1790 248 c0 -40 3 -48 19 -48 10 0 33 -3 50 -6 l31 -6 0 50 0 50
-50 4 -50 3 0 -47z m52 0 c-9 -9 -12 -7 -12 12 0 19 3 21 12 12 9 -9 9 -15 0
-24z m-22 -28 c0 -5 -4 -10 -10 -10 -5 0 -10 5 -10 10 0 6 5 10 10 10 6 0 10
-4 10 -10z"/>
</g>
</svg>
